<svg width="213" height="70" viewBox="0 0 213 70" fill="none" xmlns="http://www.w3.org/2000/svg">
<path d="M6.86021 53.235L4.3374 19.425C5.98977 18.795 7.93719 18.235 10.1797 17.745C12.4517 17.22 14.7532 16.9575 17.0842 16.9575C18.7071 16.9575 20.2857 17.115 21.82 17.43C23.3838 17.745 24.8297 18.2875 26.1575 19.0575C27.1312 21.8925 27.618 24.85 27.618 27.93C27.618 31.01 27.1164 34.0375 26.1132 37.0125C25.1395 39.9525 23.7379 42.63 21.9085 45.045C20.0791 47.46 17.8809 49.4025 15.3138 50.8725C12.7763 52.3425 9.95839 53.13 6.86021 53.235ZM11.6845 48.825C13.5729 47.915 15.1073 46.5325 16.2875 44.6775C17.4678 42.8225 18.3382 40.74 18.8989 38.43C19.4595 36.12 19.7398 33.81 19.7398 31.5C19.7398 29.015 19.43 26.775 18.8103 24.78C18.1907 22.75 17.276 21.315 16.0662 20.475C15.7712 20.475 15.4466 20.51 15.0925 20.58C14.7679 20.65 14.4434 20.7375 14.1188 20.8425L11.6845 48.825ZM40.7321 53.76C38.6371 53.76 36.8519 53.4625 35.3766 52.8675C33.9308 52.3075 32.7505 51.59 31.8358 50.715C31.5998 49.315 31.4227 47.9675 31.3047 46.6725C31.2162 45.3425 31.1719 44.065 31.1719 42.84C31.1719 40.39 31.467 38.115 32.0571 36.015C32.6768 33.915 33.4292 32.06 34.3144 30.45C35.2291 28.805 36.1585 27.4575 37.1028 26.4075C38.047 25.3225 38.8436 24.5875 39.4928 24.2025C40.8206 25.0075 42.1336 25.9875 43.4319 27.1425C44.7302 28.2975 45.9104 29.645 46.9729 31.185C48.0646 32.725 48.9351 34.4575 49.5842 36.3825C50.2334 38.3075 50.5579 40.46 50.5579 42.84C50.5579 45.255 50.2776 47.2675 49.717 48.8775C49.1564 50.4875 48.1679 51.695 46.7516 52.5C45.3351 53.34 43.3286 53.76 40.7321 53.76ZM38.342 49.1925C39.4633 49.1925 40.5845 49.105 41.7058 48.93C42.8565 48.72 43.8597 48.44 44.7154 48.09C44.9515 46.97 45.1285 45.85 45.2465 44.73C45.3646 43.61 45.4236 42.5075 45.4236 41.4225C45.4236 38.0975 44.8335 35.0525 43.6532 32.2875C42.0008 33.3025 40.5403 34.72 39.2715 36.54C38.0027 38.325 36.9995 40.3025 36.2618 42.4725C35.5537 44.6075 35.1996 46.7425 35.1996 48.8775C36.1438 49.0875 37.1913 49.1925 38.342 49.1925ZM67.6459 53.76C66.2886 53.76 64.769 53.55 63.0871 53.13C61.4053 52.745 59.6939 52.045 57.953 51.03L55.8728 16.6425L65.3444 14.91L63.751 35.9625H64.1494C65.3001 32.6725 66.6722 30.03 68.2655 28.035C69.8589 26.04 71.5555 25.0425 73.3554 25.0425C73.8865 25.0425 74.4176 25.1475 74.9487 25.3575C75.6569 26.3725 76.2765 27.7375 76.8077 29.4525C77.3683 31.1675 77.7961 33.075 78.0912 35.175C78.3863 37.275 78.5338 39.4275 78.5338 41.6325C78.5338 44.2925 78.224 46.5325 77.6043 48.3525C77.0142 50.1375 75.9225 51.485 74.3291 52.395C72.7653 53.305 70.5375 53.76 67.6459 53.76ZM65.2116 50.4C66.2148 50.4 67.1148 50.365 67.9114 50.295C68.7081 50.19 69.5343 50.015 70.39 49.77C70.5375 48.825 70.6851 47.6875 70.8326 46.3575C70.9801 45.0275 71.0539 43.295 71.0539 41.16C71.0539 39.97 71.0096 38.71 70.9211 37.38C70.8326 36.05 70.7146 34.825 70.567 33.705C70.449 32.585 70.3162 31.78 70.1687 31.29C69.6376 31.535 69.0327 31.9725 68.354 32.6025C67.6754 33.1975 66.982 34.16 66.2738 35.49C65.5657 36.82 64.887 38.675 64.2379 41.055C63.6182 43.435 63.1019 46.4975 62.6888 50.2425C63.4855 50.3475 64.3264 50.4 65.2116 50.4ZM97.0805 53.76C95.7232 53.76 94.2036 53.55 92.5217 53.13C90.8398 52.745 89.1285 52.045 87.3876 51.03L85.3074 16.6425L94.779 14.91L93.1856 35.9625H93.5835C94.7347 32.6725 96.1067 30.03 97.7001 28.035C99.2934 26.04 100.99 25.0425 102.79 25.0425C103.321 25.0425 103.852 25.1475 104.383 25.3575C105.091 26.3725 105.711 27.7375 106.242 29.4525C106.803 31.1675 107.231 33.075 107.526 35.175C107.821 37.275 107.968 39.4275 107.968 41.6325C107.968 44.2925 107.659 46.5325 107.039 48.3525C106.449 50.1375 105.357 51.485 103.764 52.395C102.2 53.305 99.9721 53.76 97.0805 53.76ZM94.6462 50.4C95.6494 50.4 96.5493 50.365 97.346 50.295C98.1427 50.19 98.9689 50.015 99.8246 49.77C99.9721 48.825 100.12 47.6875 100.267 46.3575C100.415 45.0275 100.488 43.295 100.488 41.16C100.488 39.97 100.444 38.71 100.356 37.38C100.267 36.05 100.149 34.825 100.002 33.705C99.8836 32.585 99.7508 31.78 99.6033 31.29C99.0722 31.535 98.4673 31.9725 97.7886 32.6025C97.11 33.1975 96.4166 34.16 95.7084 35.49C95.0003 36.82 94.3216 38.675 93.6725 41.055C93.0528 43.435 92.5365 46.4975 92.1234 50.2425C92.92 50.3475 93.761 50.4 94.6462 50.4ZM116.999 53.2875L114.741 16.6425L124.213 14.91L121.38 52.815L116.999 53.2875ZM140.745 53.76C138.444 53.76 136.408 53.515 134.637 53.025C132.867 52.535 131.391 51.7475 130.211 50.6625C129.946 49.2625 129.754 48.0025 129.636 46.8825C129.547 45.7275 129.503 44.6425 129.503 43.6275C129.503 40.5125 129.901 37.66 130.698 35.07C131.524 32.48 132.572 30.2575 133.84 28.4025C135.109 26.5125 136.422 25.1125 137.78 24.2025C138.989 24.7625 140.214 25.445 141.453 26.25C142.722 27.02 143.887 27.93 144.95 28.98C146.012 30.03 146.868 31.22 147.517 32.55C148.166 33.845 148.49 35.28 148.49 36.855C148.49 38.5 148.24 39.8825 147.738 41.0025C147.266 42.0875 146.396 42.91 145.127 43.47C143.858 44.03 142.029 44.31 139.639 44.31C138.635 44.31 137.662 44.2575 136.717 44.1525C135.803 44.0475 135.006 43.9075 134.327 43.7325C133.767 45.3775 133.486 47.0925 133.486 48.8775C134.165 48.9825 134.903 49.07 135.699 49.14C136.496 49.175 137.263 49.1925 138.001 49.1925C139.388 49.1925 140.804 49.07 142.25 48.825C143.725 48.545 145.2 48.09 146.676 47.46L148.004 52.5525C146.823 53.0075 145.614 53.3225 144.374 53.4975C143.135 53.6725 141.925 53.76 140.745 53.76ZM137.071 41.3175C138.193 41.3175 139.314 41.2475 140.435 41.1075C141.586 40.9675 142.589 40.7925 143.445 40.5825C143.533 39.8825 143.578 39.2175 143.578 38.5875C143.578 37.3275 143.43 36.2075 143.135 35.2275C142.869 34.2125 142.53 33.32 142.117 32.55C140.465 33.845 139.093 35.21 138.001 36.645C136.939 38.08 136.009 39.62 135.213 41.265C135.508 41.3 135.817 41.3175 136.142 41.3175C136.467 41.3175 136.776 41.3175 137.071 41.3175Z" fill="#E09F3E"/>
<path d="M155.673 66.4284C155.193 66.4284 154.717 66.3228 154.246 66.1123C153.78 65.8957 153.355 65.5709 152.971 65.1377C152.592 64.6991 152.289 64.1523 152.064 63.4971C151.838 62.842 151.725 62.0758 151.725 61.1986C151.725 59.9342 151.941 58.852 152.373 57.9518C152.81 57.0456 153.391 56.3538 154.117 55.8753C154.847 55.3908 155.651 55.1491 156.53 55.1491C156.847 55.1491 157.214 55.2256 157.632 55.3798C158.055 55.5275 158.42 55.7413 158.727 56.0208C158.775 56.0602 158.756 56.1427 158.669 56.2685C158.588 56.3937 158.482 56.5277 158.353 56.6699C158.228 56.8121 158.122 56.9291 158.035 57.0205L157.798 56.9691C157.481 56.6103 157.14 56.3735 156.775 56.2598C156.415 56.146 155.999 56.0886 155.529 56.0886C155.351 56.0886 155.113 56.1657 154.815 56.3194C154.518 56.4736 154.217 56.7268 153.915 57.0801C153.613 57.4273 153.358 57.9004 153.152 58.4987C152.945 59.0964 152.842 59.8402 152.842 60.7288C152.842 61.7827 152.991 62.6571 153.288 63.3522C153.591 64.0413 153.975 64.557 154.441 64.8987C154.907 65.2345 155.382 65.403 155.867 65.403C156.559 65.403 157.147 65.2433 157.632 64.9245V62.0277C157.632 61.9024 157.531 61.7827 157.329 61.6689C157.128 61.5491 156.734 61.4354 156.148 61.3271V60.9596H159.469V61.3271C159.195 61.4009 159.001 61.5038 158.885 61.6345C158.77 61.7657 158.713 61.8964 158.713 62.0277V64.8561C158.237 65.3177 157.826 65.6589 157.481 65.8815C157.135 66.1035 156.821 66.249 156.537 66.3173C156.254 66.3912 155.966 66.4284 155.673 66.4284ZM163.172 66.4284C162.682 66.4284 162.226 66.2659 161.803 65.9411C161.38 65.6108 161.039 65.1492 160.78 64.557C160.525 63.9647 160.398 63.2669 160.398 62.4635C160.398 61.6941 160.537 60.9678 160.816 60.2842C161.099 59.5952 161.491 59.0483 161.99 58.6436C162.202 58.467 162.459 58.3105 162.761 58.1738C163.064 58.0371 163.342 57.9687 163.597 57.9687C164.068 57.9687 164.461 58.0798 164.778 58.3018C165.095 58.5184 165.347 58.8005 165.535 59.1478C165.722 59.4956 165.856 59.8686 165.938 60.2673C166.02 60.6659 166.061 61.0477 166.061 61.4124C165.974 61.5262 165.859 61.6317 165.715 61.7285C165.571 61.8253 165.422 61.9106 165.268 61.985H161.479C161.483 62.5718 161.572 63.1187 161.745 63.6256C161.918 64.1326 162.163 64.5427 162.48 64.8561C162.797 65.1634 163.174 65.3177 163.611 65.3177C163.813 65.3177 164.007 65.2947 164.195 65.2487C164.387 65.1979 164.605 65.0896 164.85 64.9245C165.095 64.7593 165.395 64.5028 165.751 64.155C165.813 64.1949 165.868 64.2523 165.916 64.3262C165.964 64.4 165.998 64.4602 166.017 64.5055C165.59 65.0584 165.225 65.4741 164.922 65.753C164.619 66.0264 164.334 66.2058 164.065 66.2916C163.801 66.3824 163.503 66.4284 163.172 66.4284ZM161.522 61.2161H164.605C164.716 61.2161 164.788 61.1959 164.821 61.1559C164.86 61.1105 164.879 61.028 164.879 60.9082C164.879 60.7545 164.86 60.5637 164.821 60.3356C164.783 60.1076 164.711 59.8828 164.605 59.6608C164.504 59.4327 164.356 59.2446 164.158 59.0964C163.962 58.9427 163.707 58.8662 163.395 58.8662C162.9 58.8662 162.485 59.0855 162.149 59.5241C161.817 59.9566 161.608 60.521 161.522 61.2161ZM167.033 66.1719V65.8044C167.35 65.7076 167.597 65.6195 167.775 65.5397C167.953 65.4598 168.041 65.3745 168.041 65.2832V60.0966C168.041 59.8002 168.025 59.5809 167.991 59.4388C167.957 59.296 167.871 59.1965 167.731 59.1396C167.592 59.0822 167.359 59.0341 167.033 58.9941V58.6523C167.359 58.5895 167.662 58.5014 167.941 58.3877C168.224 58.2679 168.498 58.1284 168.762 57.9687L169.014 58.2679L169.093 60.3958C169.376 59.8883 169.691 59.4557 170.037 59.0964C170.388 58.7322 170.733 58.4527 171.074 58.2591C171.415 58.0655 171.711 57.9687 171.96 57.9687C172.373 57.9687 172.741 58.1197 173.062 58.4216C173.389 58.7234 173.553 59.1965 173.553 59.8402V65.2832C173.553 65.357 173.624 65.4341 173.768 65.514C173.917 65.5938 174.181 65.6906 174.561 65.8044V66.1719H171.463V65.8044C172.136 65.5993 172.472 65.4254 172.472 65.2832V60.7627C172.472 60.0682 172.402 59.6148 172.263 59.4043C172.128 59.1877 171.89 59.0795 171.55 59.0795C171.257 59.0795 170.894 59.2588 170.462 59.6181C170.034 59.9769 169.588 60.5976 169.122 61.4808V65.2832C169.122 65.3685 169.213 65.4571 169.396 65.5479C169.578 65.6392 169.823 65.7245 170.131 65.8044V66.1719H167.033ZM178.127 66.4284C177.637 66.4284 177.18 66.2659 176.758 65.9411C176.335 65.6108 175.994 65.1492 175.735 64.557C175.481 63.9647 175.353 63.2669 175.353 62.4635C175.353 61.6941 175.493 60.9678 175.771 60.2842C176.055 59.5952 176.446 59.0483 176.945 58.6436C177.156 58.467 177.413 58.3105 177.716 58.1738C178.019 58.0371 178.297 57.9687 178.552 57.9687C179.022 57.9687 179.416 58.0798 179.733 58.3018C180.05 58.5184 180.302 58.8005 180.489 59.1478C180.677 59.4956 180.811 59.8686 180.893 60.2673C180.974 60.6659 181.015 61.0477 181.015 61.4124C180.929 61.5262 180.814 61.6317 180.67 61.7285C180.525 61.8253 180.377 61.9106 180.223 61.985H176.434C176.439 62.5718 176.528 63.1187 176.7 63.6256C176.873 64.1326 177.118 64.5427 177.435 64.8561C177.752 65.1634 178.129 65.3177 178.566 65.3177C178.768 65.3177 178.962 65.2947 179.15 65.2487C179.342 65.1979 179.56 65.0896 179.805 64.9245C180.05 64.7593 180.35 64.5028 180.706 64.155C180.768 64.1949 180.823 64.2523 180.871 64.3262C180.919 64.4 180.953 64.4602 180.972 64.5055C180.545 65.0584 180.18 65.4741 179.877 65.753C179.575 66.0264 179.289 66.2058 179.02 66.2916C178.756 66.3824 178.458 66.4284 178.127 66.4284ZM176.477 61.2161H179.56C179.671 61.2161 179.743 61.1959 179.777 61.1559C179.815 61.1105 179.834 61.028 179.834 60.9082C179.834 60.7545 179.815 60.5637 179.777 60.3356C179.738 60.1076 179.666 59.8828 179.56 59.6608C179.459 59.4327 179.31 59.2446 179.114 59.0964C178.917 58.9427 178.662 58.8662 178.35 58.8662C177.855 58.8662 177.44 59.0855 177.104 59.5241C176.772 59.9566 176.564 60.521 176.477 61.2161ZM181.988 66.1719V65.8044C182.305 65.7191 182.552 65.6338 182.73 65.5479C182.907 65.4626 182.996 65.3745 182.996 65.2832V60.3099C182.996 59.9342 182.979 59.6723 182.946 59.5241C182.913 59.3759 182.874 59.2763 182.83 59.2249C182.768 59.1451 182.679 59.0909 182.564 59.0625C182.449 59.0341 182.257 59.0111 181.988 58.9941V58.6523C182.3 58.5555 182.607 58.4588 182.91 58.362C183.213 58.2591 183.481 58.1284 183.717 57.9687L183.969 58.2679L184.062 60.2077C184.322 59.5755 184.624 59.0455 184.97 58.6184C185.316 58.1853 185.695 57.9687 186.108 57.9687C186.262 57.9687 186.428 57.9917 186.605 58.0371C186.783 58.0825 186.961 58.1651 187.138 58.2848C187.201 58.3248 187.22 58.4784 187.196 58.7464C187.172 59.0084 187.124 59.2987 187.052 59.6181C186.985 59.9315 186.91 60.1902 186.829 60.3958H186.519C186.462 59.9342 186.358 59.6148 186.209 59.4388C186.065 59.2561 185.902 59.1653 185.719 59.1653C185.508 59.1653 185.239 59.3846 184.913 59.8232C184.586 60.2618 184.308 60.9651 184.077 61.9336V65.2832C184.077 65.3685 184.166 65.4571 184.344 65.5479C184.526 65.6392 184.843 65.7245 185.294 65.8044V66.1719H181.988ZM189.552 66.4284C189.321 66.4284 189.088 66.3655 188.853 66.2402C188.618 66.1205 188.418 65.9241 188.255 65.6507C188.096 65.3773 188.017 65.0213 188.017 64.5827C188.017 64.1441 188.08 63.782 188.205 63.4971C188.334 63.2067 188.488 62.9563 188.666 62.7452C188.819 62.563 189.007 62.3924 189.228 62.2327C189.453 62.073 189.775 61.9221 190.193 61.7799C190.611 61.6372 191.19 61.5038 191.929 61.378V60.1732C191.929 59.786 191.845 59.4612 191.677 59.1992C191.509 58.9312 191.19 58.806 190.719 58.823C190.411 58.829 190.131 58.94 189.876 59.1566C189.626 59.3671 189.516 59.6433 189.545 59.9856C189.554 60.0534 189.473 60.1305 189.3 60.2159C189.127 60.3017 188.939 60.3728 188.738 60.4297C188.541 60.4811 188.402 60.4953 188.32 60.4723L188.219 60.1393C188.368 59.7576 188.613 59.4043 188.954 59.0795C189.295 58.7491 189.679 58.4817 190.107 58.2761C190.539 58.0716 190.957 57.9687 191.36 57.9687C191.888 57.9687 192.294 58.1339 192.577 58.4642C192.865 58.7891 193.01 59.2446 193.01 59.8314V64.651C193.01 65.0951 193.106 65.3177 193.298 65.3177C193.365 65.3177 193.451 65.3029 193.557 65.2745C193.663 65.2405 193.812 65.1777 194.004 65.0869L194.112 65.4713C193.704 65.8016 193.365 66.0439 193.096 66.1976C192.832 66.3512 192.633 66.4284 192.498 66.4284C192.34 66.4284 192.208 66.2971 192.102 66.0352C191.996 65.7672 191.939 65.4057 191.929 64.9502C191.497 65.4686 191.069 65.8443 190.647 66.0778C190.224 66.3113 189.859 66.4284 189.552 66.4284ZM189.977 65.3177C190.26 65.3177 190.565 65.2291 190.892 65.0524C191.218 64.8758 191.564 64.6023 191.929 64.2321V62.0189C191.391 62.1217 190.973 62.224 190.676 62.3268C190.383 62.4236 190.159 62.5259 190.006 62.6341C189.852 62.7424 189.722 62.8622 189.617 62.9934C189.497 63.1471 189.396 63.3237 189.314 63.5228C189.237 63.7164 189.199 63.9472 189.199 64.2152C189.199 64.517 189.244 64.7478 189.336 64.9075C189.432 65.0666 189.542 65.1749 189.667 65.2318C189.792 65.2887 189.895 65.3177 189.977 65.3177ZM196.691 66.4284C196.359 66.4284 196.066 66.2687 195.812 65.9498C195.562 65.6305 195.437 65.0754 195.437 64.2835V59.0368H194.508L194.356 58.7978L194.918 58.2252H195.437V56.123L196.295 55.2344L196.518 55.4482V58.2252H198.873L199.082 58.473C198.991 58.6327 198.871 58.8033 198.722 58.9854C198.573 59.168 198.451 59.2845 198.355 59.3359C198.239 59.2676 198.064 59.202 197.829 59.1396C197.593 59.0712 197.281 59.0368 196.892 59.0368H196.518V63.5485C196.518 64.2321 196.575 64.6991 196.691 64.9502C196.806 65.1952 197.007 65.3177 197.296 65.3177C197.464 65.3177 197.675 65.2777 197.93 65.1979C198.184 65.118 198.499 64.9644 198.873 64.7363L199.082 65.1722C198.612 65.5878 198.158 65.9012 197.721 66.1123C197.289 66.3228 196.945 66.4284 196.691 66.4284ZM202.871 66.4284C202.267 66.4284 201.738 66.2517 201.287 65.8984C200.84 65.5452 200.492 65.0639 200.242 64.4541C199.997 63.8449 199.875 63.1526 199.875 62.3777C199.875 61.8138 199.959 61.2697 200.127 60.7458C200.3 60.2159 200.535 59.7434 200.833 59.3272C201.136 58.9061 201.484 58.5752 201.877 58.3362C202.276 58.0912 202.701 57.9687 203.153 57.9687C203.757 57.9687 204.284 58.1454 204.73 58.4987C205.177 58.852 205.522 59.3332 205.767 59.9424C206.017 60.5522 206.142 61.2473 206.142 62.0277C206.142 62.5975 206.053 63.1444 205.876 63.6683C205.703 64.1922 205.465 64.6625 205.162 65.0781C204.86 65.4937 204.512 65.8246 204.118 66.0691C203.724 66.3086 203.308 66.4284 202.871 66.4284ZM203.073 65.4883C203.755 65.4883 204.25 65.1979 204.557 64.6166C204.87 64.0358 205.025 63.2581 205.025 62.2841C205.025 61.6798 204.92 61.1248 204.709 60.6178C204.502 60.1048 204.238 59.692 203.916 59.3786C203.599 59.0652 203.275 58.9088 202.944 58.9088C202.458 58.9088 202.072 59.051 201.784 59.3359C201.5 59.6209 201.296 60.0053 201.172 60.4893C201.051 60.9738 200.991 61.5207 200.991 62.1299C200.991 62.7282 201.102 63.2838 201.323 63.7962C201.548 64.3032 201.822 64.7134 202.144 65.0267C202.47 65.3346 202.78 65.4883 203.073 65.4883ZM207.114 66.1719V65.8044C207.432 65.7191 207.679 65.6338 207.857 65.5479C208.034 65.4626 208.123 65.3745 208.123 65.2832V60.3099C208.123 59.9342 208.106 59.6723 208.072 59.5241C208.039 59.3759 208 59.2763 207.957 59.2249C207.895 59.1451 207.806 59.0909 207.691 59.0625C207.575 59.0341 207.384 59.0111 207.114 58.9941V58.6523C207.426 58.5555 207.734 58.4588 208.036 58.362C208.339 58.2591 208.608 58.1284 208.843 57.9687L209.095 58.2679L209.189 60.2077C209.449 59.5755 209.751 59.0455 210.097 58.6184C210.443 58.1853 210.822 57.9687 211.235 57.9687C211.389 57.9687 211.555 57.9917 211.732 58.0371C211.91 58.0825 212.088 58.1651 212.265 58.2848C212.328 58.3248 212.347 58.4784 212.323 58.7464C212.299 59.0084 212.251 59.2987 212.179 59.6181C212.112 59.9315 212.037 60.1902 211.955 60.3958H211.645C211.588 59.9342 211.485 59.6148 211.336 59.4388C211.192 59.2561 211.029 59.1653 210.846 59.1653C210.635 59.1653 210.366 59.3846 210.039 59.8232C209.713 60.2618 209.434 60.9651 209.204 61.9336V65.2832C209.204 65.3685 209.292 65.4571 209.47 65.5479C209.653 65.6392 209.97 65.7245 210.421 65.8044V66.1719H207.114Z" fill="#F6F5AC"/>
</svg>
