<svg viewBox="0 0 534 483" fill="none" xmlns="http://www.w3.org/2000/svg">
    <path d="M267.644 437.623C344.247 437.623 406.346 376.534 406.346 301.176C406.346 225.818 344.247 164.729 267.644 164.729C191.04 164.729 128.941 225.818 128.941 301.176C128.941 376.534 191.04 437.623 267.644 437.623Z"
          stroke="#E09F3E" stroke-width="5"/>
    <path d="M14 438L268 47" stroke="#E09F3E" stroke-width="5"/>
    <path d="M521 438L269 47" stroke="#E09F3E" stroke-width="5"/>
    <path d="M521.306 438.256L13.1943 438.221" stroke="#E09F3E" stroke-width="5"/>
    <path d="M13.0801 437.145L385.793 229.523" stroke="#E09F3E" stroke-width="5"/>
    <path d="M518.914 438.063L146.908 230.441" stroke="#E09F3E" stroke-width="5"/>
    <path d="M267.5 438L268.5 45" stroke="#E09F3E" stroke-width="5"/>
    <mask id="path-8-inside-1_30_82" fill="white">
        <path d="M529.305 460.628C529.055 459.872 528.722 459.193 528.311 458.595C527.907 457.987 527.424 457.469 526.859 457.04C526.305 456.615 525.672 456.288 524.964 456.062C524.253 455.837 523.477 455.728 522.633 455.728C521.245 455.728 519.983 456.08 518.85 456.783C517.713 457.487 516.811 458.525 516.139 459.897C515.471 461.268 515.134 462.953 515.134 464.944C515.134 466.939 515.474 468.62 516.15 469.992C516.829 471.364 517.748 472.402 518.907 473.109C520.065 473.812 521.367 474.164 522.815 474.164C524.156 474.164 525.336 473.882 526.355 473.32C527.385 472.75 528.186 471.948 528.758 470.914C529.337 469.872 529.627 468.648 529.627 467.238L530.492 467.417H523.455V464.944H532.369V467.417C532.369 469.313 531.958 470.963 531.132 472.366C530.317 473.766 529.191 474.853 527.75 475.624C526.319 476.391 524.674 476.77 522.815 476.77C520.741 476.77 518.921 476.292 517.351 475.332C515.789 474.375 514.569 473.01 513.693 471.241C512.824 469.471 512.392 467.375 512.392 464.944C512.392 463.126 512.639 461.486 513.136 460.034C513.636 458.57 514.344 457.325 515.26 456.302C516.175 455.274 517.255 454.486 518.506 453.938C519.754 453.393 521.131 453.118 522.633 453.118C523.866 453.118 525.014 453.301 526.083 453.67C527.156 454.029 528.114 454.543 528.951 455.211C529.795 455.869 530.503 456.66 531.064 457.582C531.629 458.497 532.019 459.513 532.23 460.628H529.305Z"/>
    </mask>
    <path d="M529.305 460.628C529.055 459.872 528.722 459.193 528.311 458.595C527.907 457.987 527.424 457.469 526.859 457.04C526.305 456.615 525.672 456.288 524.964 456.062C524.253 455.837 523.477 455.728 522.633 455.728C521.245 455.728 519.983 456.08 518.85 456.783C517.713 457.487 516.811 458.525 516.139 459.897C515.471 461.268 515.134 462.953 515.134 464.944C515.134 466.939 515.474 468.62 516.15 469.992C516.829 471.364 517.748 472.402 518.907 473.109C520.065 473.812 521.367 474.164 522.815 474.164C524.156 474.164 525.336 473.882 526.355 473.32C527.385 472.75 528.186 471.948 528.758 470.914C529.337 469.872 529.627 468.648 529.627 467.238L530.492 467.417H523.455V464.944H532.369V467.417C532.369 469.313 531.958 470.963 531.132 472.366C530.317 473.766 529.191 474.853 527.75 475.624C526.319 476.391 524.674 476.77 522.815 476.77C520.741 476.77 518.921 476.292 517.351 475.332C515.789 474.375 514.569 473.01 513.693 471.241C512.824 469.471 512.392 467.375 512.392 464.944C512.392 463.126 512.639 461.486 513.136 460.034C513.636 458.57 514.344 457.325 515.26 456.302C516.175 455.274 517.255 454.486 518.506 453.938C519.754 453.393 521.131 453.118 522.633 453.118C523.866 453.118 525.014 453.301 526.083 453.67C527.156 454.029 528.114 454.543 528.951 455.211C529.795 455.869 530.503 456.66 531.064 457.582C531.629 458.497 532.019 459.513 532.23 460.628H529.305Z"
          fill="white"/>
    <path d="M529.305 460.628L524.558 462.199L525.693 465.628H529.305V460.628ZM528.311 458.595L524.146 461.361L524.168 461.395L524.191 461.428L528.311 458.595ZM526.859 457.04L523.814 461.006L523.824 461.014L523.835 461.022L526.859 457.04ZM524.964 456.062L526.479 451.297L526.472 451.295L524.964 456.062ZM518.85 456.783L521.48 461.035L521.486 461.032L518.85 456.783ZM516.139 459.897L511.649 457.696L511.645 457.706L516.139 459.897ZM516.15 469.992L511.665 472.202L511.669 472.211L516.15 469.992ZM518.907 473.109L516.302 477.377L516.312 477.382L518.907 473.109ZM526.355 473.32L528.772 477.697L528.776 477.695L526.355 473.32ZM528.758 470.914L524.389 468.483L524.383 468.493L528.758 470.914ZM529.627 467.238L530.642 462.342L524.627 461.095V467.238H529.627ZM530.492 467.417V472.417L531.507 462.521L530.492 467.417ZM523.455 467.417H518.455V472.417H523.455V467.417ZM523.455 464.944V459.944H518.455V464.944H523.455ZM532.369 464.944H537.369V459.944H532.369V464.944ZM531.132 472.366L526.823 469.83L526.817 469.84L526.811 469.85L531.132 472.366ZM527.75 475.624L525.392 471.214L525.387 471.217L527.75 475.624ZM517.351 475.332L514.74 479.596L514.742 479.597L517.351 475.332ZM513.693 471.241L509.205 473.445L509.209 473.452L509.213 473.459L513.693 471.241ZM513.136 460.034L517.866 461.652L517.866 461.652L513.136 460.034ZM515.26 456.302L518.987 459.635L518.992 459.628L515.26 456.302ZM518.506 453.938L516.505 449.356L516.499 449.359L518.506 453.938ZM526.083 453.67L524.451 458.396L524.474 458.404L524.497 458.412L526.083 453.67ZM528.951 455.211L525.831 459.118L525.854 459.136L525.877 459.155L528.951 455.211ZM531.064 457.582L526.794 460.183L526.802 460.196L526.811 460.21L531.064 457.582ZM532.23 460.628V465.628H538.265L537.143 459.699L532.23 460.628ZM529.305 460.628L534.052 459.057C533.666 457.892 533.132 456.782 532.431 455.762L528.311 458.595L524.191 461.428C524.312 461.604 524.443 461.851 524.558 462.199L529.305 460.628ZM528.311 458.595L532.476 455.829C531.772 454.769 530.908 453.837 529.884 453.059L526.859 457.04L523.835 461.022C523.941 461.102 524.042 461.204 524.146 461.361L528.311 458.595ZM526.859 457.04L529.905 453.075C528.865 452.276 527.708 451.688 526.479 451.297L524.964 456.062L523.449 460.827C523.636 460.887 523.745 460.953 523.814 461.006L526.859 457.04ZM524.964 456.062L526.472 451.295C525.202 450.893 523.908 450.728 522.633 450.728V455.728V460.728C523.046 460.728 523.304 460.781 523.456 460.829L524.964 456.062ZM522.633 455.728V450.728C520.354 450.728 518.172 451.319 516.213 452.535L518.85 456.783L521.486 461.032C521.795 460.84 522.137 460.728 522.633 460.728V455.728ZM518.85 456.783L516.219 452.532C514.167 453.801 512.672 455.609 511.649 457.696L516.139 459.897L520.629 462.097C520.951 461.44 521.258 461.173 521.48 461.035L518.85 456.783ZM516.139 459.897L511.645 457.706C510.559 459.934 510.134 462.414 510.134 464.944H515.134H520.134C520.134 463.493 520.382 462.603 520.634 462.087L516.139 459.897ZM515.134 464.944H510.134C510.134 467.485 510.565 469.969 511.665 472.202L516.15 469.992L520.635 467.782C520.383 467.271 520.134 466.392 520.134 464.944H515.134ZM516.15 469.992L511.669 472.211C512.714 474.321 514.24 476.118 516.302 477.377L518.907 473.109L521.512 468.841C521.257 468.685 520.944 468.407 520.631 467.773L516.15 469.992ZM518.907 473.109L516.312 477.382C518.305 478.593 520.516 479.164 522.815 479.164V474.164V469.164C522.218 469.164 521.825 469.031 521.502 468.835L518.907 473.109ZM522.815 474.164V479.164C524.872 479.164 526.907 478.726 528.772 477.697L526.355 473.32L523.938 468.943C523.765 469.038 523.44 469.164 522.815 469.164V474.164ZM526.355 473.32L528.776 477.695C530.631 476.668 532.108 475.187 533.133 473.334L528.758 470.914L524.383 468.493C524.264 468.709 524.138 468.832 523.934 468.945L526.355 473.32ZM528.758 470.914L533.127 473.344C534.19 471.435 534.627 469.344 534.627 467.238H529.627H524.627C524.627 467.953 524.485 468.31 524.389 468.483L528.758 470.914ZM529.627 467.238L528.612 472.134L529.477 472.313L530.492 467.417L531.507 462.521L530.642 462.342L529.627 467.238ZM530.492 467.417V462.417H523.455V467.417V472.417H530.492V467.417ZM523.455 467.417H528.455V464.944H523.455H518.455V467.417H523.455ZM523.455 464.944V469.944H532.369V464.944V459.944H523.455V464.944ZM532.369 464.944H527.369V467.417H532.369H537.369V464.944H532.369ZM532.369 467.417H527.369C527.369 468.573 527.125 469.317 526.823 469.83L531.132 472.366L535.441 474.902C536.791 472.609 537.369 470.053 537.369 467.417H532.369ZM531.132 472.366L526.811 469.85C526.464 470.447 526.019 470.879 525.392 471.214L527.75 475.624L530.107 480.033C532.363 478.827 534.17 477.086 535.453 474.883L531.132 472.366ZM527.75 475.624L525.387 471.217C524.789 471.538 523.979 471.77 522.815 471.77V476.77V481.77C525.37 481.77 527.85 481.243 530.112 480.03L527.75 475.624ZM522.815 476.77V471.77C521.54 471.77 520.647 471.486 519.961 471.067L517.351 475.332L514.742 479.597C517.196 481.098 519.943 481.77 522.815 481.77V476.77ZM517.351 475.332L519.962 471.068C519.268 470.642 518.667 470.017 518.174 469.022L513.693 471.241L509.213 473.459C510.472 476.003 512.31 478.108 514.74 479.596L517.351 475.332ZM513.693 471.241L518.181 469.037C517.719 468.096 517.392 466.787 517.392 464.944H512.392H507.392C507.392 467.963 507.93 470.847 509.205 473.445L513.693 471.241ZM512.392 464.944H517.392C517.392 463.572 517.578 462.494 517.866 461.652L513.136 460.034L508.405 458.415C507.699 460.479 507.392 462.679 507.392 464.944H512.392ZM513.136 460.034L517.866 461.652C518.178 460.74 518.571 460.099 518.987 459.635L515.26 456.302L511.533 452.969C510.117 454.551 509.094 456.401 508.405 458.415L513.136 460.034ZM515.26 456.302L518.992 459.628C519.436 459.13 519.931 458.773 520.514 458.517L518.506 453.938L516.499 449.359C514.579 450.2 512.914 451.419 511.527 452.975L515.26 456.302ZM518.506 453.938L520.508 458.52C521.065 458.276 521.752 458.118 522.633 458.118V453.118V448.118C520.51 448.118 518.443 448.509 516.505 449.356L518.506 453.938ZM522.633 453.118V458.118C523.364 458.118 523.955 458.225 524.451 458.396L526.083 453.67L527.716 448.944C526.073 448.377 524.368 448.118 522.633 448.118V453.118ZM526.083 453.67L524.497 458.412C525.05 458.597 525.482 458.839 525.831 459.118L528.951 455.211L532.072 451.304C530.747 450.246 529.262 449.461 527.669 448.929L526.083 453.67ZM528.951 455.211L525.877 459.155C526.247 459.443 526.549 459.781 526.794 460.183L531.064 457.582L535.334 454.981C534.457 453.54 533.342 452.295 532.025 451.268L528.951 455.211ZM531.064 457.582L526.811 460.21C527.038 460.577 527.214 461.014 527.317 461.558L532.23 460.628L537.143 459.699C536.824 458.013 536.221 456.416 535.318 454.954L531.064 457.582ZM532.23 460.628V455.628H529.305V460.628V465.628H532.23V460.628Z"
          fill="white" mask="url(#path-8-inside-1_30_82)"/>
    <mask id="path-10-inside-2_30_82" fill="white">
        <path d="M3.79419 478.814H0.822876L9.41681 455.792H12.3424L20.9364 478.814H17.9651L10.971 459.432H10.7882L3.79419 478.814ZM4.89129 469.82H16.868V472.292H4.89129V469.82Z"/>
    </mask>
    <path d="M3.79419 478.814H0.822876L9.41681 455.792H12.3424L20.9364 478.814H17.9651L10.971 459.432H10.7882L3.79419 478.814ZM4.89129 469.82H16.868V472.292H4.89129V469.82Z"
          fill="white"/>
    <path d="M3.79419 478.814V483.814H7.3055L8.49735 480.511L3.79419 478.814ZM0.822876 478.814L-3.86141 477.066L-6.38053 483.814H0.822876V478.814ZM9.41681 455.792V450.792H5.94623L4.73253 454.043L9.41681 455.792ZM12.3424 455.792L17.0267 454.043L15.813 450.792H12.3424V455.792ZM20.9364 478.814V483.814H28.1398L25.6206 477.066L20.9364 478.814ZM17.9651 478.814L13.2619 480.511L14.4538 483.814H17.9651V478.814ZM10.971 459.432L15.6742 457.735L14.4824 454.432H10.971V459.432ZM10.7882 459.432V454.432H7.2769L6.08506 457.735L10.7882 459.432ZM4.89129 469.82V464.82H-0.108705V469.82H4.89129ZM16.868 469.82H21.868V464.82H16.868V469.82ZM16.868 472.292V477.292H21.868V472.292H16.868ZM4.89129 472.292H-0.108705V477.292H4.89129V472.292ZM3.79419 478.814V473.814H0.822876V478.814V483.814H3.79419V478.814ZM0.822876 478.814L5.50716 480.563L14.1011 457.54L9.41681 455.792L4.73253 454.043L-3.86141 477.066L0.822876 478.814ZM9.41681 455.792V460.792H12.3424V455.792V450.792H9.41681V455.792ZM12.3424 455.792L7.65812 457.54L16.2521 480.563L20.9364 478.814L25.6206 477.066L17.0267 454.043L12.3424 455.792ZM20.9364 478.814V473.814H17.9651V478.814V483.814H20.9364V478.814ZM17.9651 478.814L22.6682 477.117L15.6742 457.735L10.971 459.432L6.26788 461.129L13.2619 480.511L17.9651 478.814ZM10.971 459.432V454.432H10.7882V459.432V464.432H10.971V459.432ZM10.7882 459.432L6.08506 457.735L-0.908968 477.117L3.79419 478.814L8.49735 480.511L15.4914 461.129L10.7882 459.432ZM4.89129 469.82V474.82H16.868V469.82V464.82H4.89129V469.82ZM16.868 469.82H11.868V472.292H16.868H21.868V469.82H16.868ZM16.868 472.292V467.292H4.89129V472.292V477.292H16.868V472.292ZM4.89129 472.292H9.89129V469.82H4.89129H-0.108705V472.292H4.89129Z"
          fill="white" mask="url(#path-10-inside-2_30_82)"/>
    <mask id="path-12-inside-3_30_82" fill="white">
        <path d="M273.478 271.643V248.619H287.603V251.092H276.312V258.872H286.872V261.345H276.312V269.17H287.786V271.643H273.478Z"/>
    </mask>
    <path d="M273.478 271.643V248.619H287.603V251.092H276.312V258.872H286.872V261.345H276.312V269.17H287.786V271.643H273.478Z"
          fill="white"/>
    <path d="M273.478 271.643H268.478V276.643H273.478V271.643ZM273.478 248.619V243.619H268.478V248.619H273.478ZM287.603 248.619H292.603V243.619H287.603V248.619ZM287.603 251.092V256.092H292.603V251.092H287.603ZM276.312 251.092V246.092H271.312V251.092H276.312ZM276.312 258.872H271.312V263.872H276.312V258.872ZM286.872 258.872H291.872V253.872H286.872V258.872ZM286.872 261.345V266.345H291.872V261.345H286.872ZM276.312 261.345V256.345H271.312V261.345H276.312ZM276.312 269.17H271.312V274.17H276.312V269.17ZM287.786 269.17H292.786V264.17H287.786V269.17ZM287.786 271.643V276.643H292.786V271.643H287.786ZM273.478 271.643H278.478V248.619H273.478H268.478V271.643H273.478ZM273.478 248.619V253.619H287.603V248.619V243.619H273.478V248.619ZM287.603 248.619H282.603V251.092H287.603H292.603V248.619H287.603ZM287.603 251.092V246.092H276.312V251.092V256.092H287.603V251.092ZM276.312 251.092H271.312V258.872H276.312H281.312V251.092H276.312ZM276.312 258.872V263.872H286.872V258.872V253.872H276.312V258.872ZM286.872 258.872H281.872V261.345H286.872H291.872V258.872H286.872ZM286.872 261.345V256.345H276.312V261.345V266.345H286.872V261.345ZM276.312 261.345H271.312V269.17H276.312H281.312V261.345H276.312ZM276.312 269.17V274.17H287.786V269.17V264.17H276.312V269.17ZM287.786 269.17H282.786V271.643H287.786H292.786V269.17H287.786ZM287.786 271.643V266.643H273.478V271.643V276.643H287.786V271.643Z"
          fill="white" mask="url(#path-12-inside-3_30_82)"/>
    <mask id="path-14-inside-4_30_82" fill="white">
        <path d="M410.043 221.309H402.824V198.284H410.365C412.636 198.284 414.577 198.745 416.194 199.667C417.81 200.582 419.047 201.897 419.909 203.613C420.767 205.322 421.2 207.368 421.2 209.752C421.2 212.15 420.763 214.215 419.895 215.946C419.029 217.67 417.763 218.996 416.101 219.926C414.442 220.848 412.421 221.309 410.043 221.309ZM405.656 218.835H409.861C411.799 218.835 413.401 218.468 414.674 217.734C415.947 216.999 416.894 215.953 417.52 214.597C418.142 213.24 418.457 211.625 418.457 209.752C418.457 207.893 418.146 206.293 417.531 204.951C416.912 203.602 415.99 202.568 414.763 201.848C413.537 201.121 412.01 200.758 410.183 200.758H405.656V218.835Z"/>
    </mask>
    <path d="M410.043 221.309H402.824V198.284H410.365C412.636 198.284 414.577 198.745 416.194 199.667C417.81 200.582 419.047 201.897 419.909 203.613C420.767 205.322 421.2 207.368 421.2 209.752C421.2 212.15 420.763 214.215 419.895 215.946C419.029 217.67 417.763 218.996 416.101 219.926C414.442 220.848 412.421 221.309 410.043 221.309ZM405.656 218.835H409.861C411.799 218.835 413.401 218.468 414.674 217.734C415.947 216.999 416.894 215.953 417.52 214.597C418.142 213.24 418.457 211.625 418.457 209.752C418.457 207.893 418.146 206.293 417.531 204.951C416.912 203.602 415.99 202.568 414.763 201.848C413.537 201.121 412.01 200.758 410.183 200.758H405.656V218.835Z"
          fill="white"/>
    <path d="M402.824 221.309H397.824V226.309H402.824V221.309ZM402.824 198.284V193.284H397.824V198.284H402.824ZM416.194 199.667L413.716 204.01L413.724 204.015L413.732 204.019L416.194 199.667ZM419.909 203.613L415.44 205.857L415.441 205.857L419.909 203.613ZM419.895 215.946L424.363 218.189L424.363 218.189L419.895 215.946ZM416.101 219.926L418.529 224.296L418.54 224.29L416.101 219.926ZM405.656 218.835H400.656V223.835H405.656V218.835ZM417.52 214.597L422.06 216.692L422.065 216.681L417.52 214.597ZM417.531 204.951L422.076 202.867L422.076 202.867L417.531 204.951ZM414.763 201.848L412.214 206.149L412.224 206.155L412.234 206.161L414.763 201.848ZM405.656 200.758V195.758H400.656V200.758H405.656ZM410.043 221.309V216.309H402.824V221.309V226.309H410.043V221.309ZM402.824 221.309H407.824V198.284H402.824H397.824V221.309H402.824ZM402.824 198.284V203.284H410.365V198.284V193.284H402.824V198.284ZM410.365 198.284V203.284C411.956 203.284 413.004 203.604 413.716 204.01L416.194 199.667L418.671 195.324C416.151 193.887 413.315 193.284 410.365 193.284V198.284ZM416.194 199.667L413.732 204.019C414.452 204.427 415.006 204.992 415.44 205.857L419.909 203.613L424.377 201.37C423.088 198.801 421.168 196.736 418.655 195.315L416.194 199.667ZM419.909 203.613L415.441 205.857C415.876 206.724 416.2 207.966 416.2 209.752H421.2H426.2C426.2 206.77 425.658 203.92 424.377 201.369L419.909 203.613ZM421.2 209.752H416.2C416.2 211.55 415.873 212.812 415.426 213.703L419.895 215.946L424.363 218.189C425.654 215.618 426.2 212.75 426.2 209.752H421.2ZM419.895 215.946L415.426 213.703C415.005 214.542 414.441 215.125 413.661 215.561L416.101 219.926L418.54 224.29C421.086 222.868 423.054 220.798 424.363 218.189L419.895 215.946ZM416.101 219.926L413.672 215.555C412.922 215.972 411.784 216.309 410.043 216.309V221.309V226.309C413.059 226.309 415.961 225.723 418.529 224.296L416.101 219.926ZM405.656 218.835V223.835H409.861V218.835V213.835H405.656V218.835ZM409.861 218.835V223.835C412.407 223.835 414.936 223.355 417.173 222.064L414.674 217.734L412.175 213.403C411.866 213.581 411.191 213.835 409.861 213.835V218.835ZM414.674 217.734L417.173 222.064C419.36 220.803 421.011 218.966 422.06 216.692L417.52 214.597L412.98 212.502C412.778 212.94 412.534 213.196 412.175 213.403L414.674 217.734ZM417.52 214.597L422.065 216.681C423.051 214.532 423.457 212.175 423.457 209.752H418.457H413.457C413.457 211.076 413.234 211.949 412.975 212.513L417.52 214.597ZM418.457 209.752H423.457C423.457 207.346 423.055 205.003 422.076 202.867L417.531 204.951L412.986 207.035C413.237 207.582 413.457 208.439 413.457 209.752H418.457ZM417.531 204.951L422.076 202.867C421.05 200.63 419.445 198.797 417.293 197.535L414.763 201.848L412.234 206.161C412.535 206.338 412.775 206.574 412.986 207.035L417.531 204.951ZM414.763 201.848L417.313 197.547C415.126 196.251 412.659 195.758 410.183 195.758V200.758V205.758C411.361 205.758 411.948 205.992 412.214 206.149L414.763 201.848ZM410.183 200.758V195.758H405.656V200.758V205.758H410.183V200.758ZM405.656 200.758H400.656V218.835H405.656H410.656V200.758H405.656Z"
          fill="white" mask="url(#path-14-inside-4_30_82)"/>
    <mask id="path-16-inside-5_30_82" fill="white">
        <path d="M261.338 478.803V455.781H275.372V458.254H264.172V466.031H274.32V468.508H264.172V478.803H261.338Z"/>
    </mask>
    <path d="M261.338 478.803V455.781H275.372V458.254H264.172V466.031H274.32V468.508H264.172V478.803H261.338Z"
          fill="white"/>
    <path d="M261.338 478.803H256.338V483.803H261.338V478.803ZM261.338 455.781V450.781H256.338V455.781H261.338ZM275.372 455.781H280.372V450.781H275.372V455.781ZM275.372 458.254V463.254H280.372V458.254H275.372ZM264.172 458.254V453.254H259.172V458.254H264.172ZM264.172 466.031H259.172V471.031H264.172V466.031ZM274.32 466.031H279.32V461.031H274.32V466.031ZM274.32 468.508V473.508H279.32V468.508H274.32ZM264.172 468.508V463.508H259.172V468.508H264.172ZM264.172 478.803V483.803H269.172V478.803H264.172ZM261.338 478.803H266.338V455.781H261.338H256.338V478.803H261.338ZM261.338 455.781V460.781H275.372V455.781V450.781H261.338V455.781ZM275.372 455.781H270.372V458.254H275.372H280.372V455.781H275.372ZM275.372 458.254V453.254H264.172V458.254V463.254H275.372V458.254ZM264.172 458.254H259.172V466.031H264.172H269.172V458.254H264.172ZM264.172 466.031V471.031H274.32V466.031V461.031H264.172V466.031ZM274.32 466.031H269.32V468.508H274.32H279.32V466.031H274.32ZM274.32 468.508V463.508H264.172V468.508V473.508H274.32V468.508ZM264.172 468.508H259.172V478.803H264.172H269.172V468.508H264.172ZM264.172 478.803V473.803H261.338V478.803V483.803H264.172V478.803Z"
          fill="white" mask="url(#path-16-inside-5_30_82)"/>
    <mask id="path-18-inside-6_30_82" fill="white">
        <path d="M279.254 12.8442H276.419C276.252 12.0423 275.959 11.3377 275.54 10.7306C275.128 10.1235 274.625 9.61392 274.031 9.20169C273.444 8.78197 272.793 8.46718 272.077 8.25733C271.361 8.04747 270.614 7.94254 269.837 7.94254C268.42 7.94254 267.136 8.29482 265.986 8.99933C264.843 9.70383 263.933 10.7419 263.254 12.1134C262.584 13.485 262.249 15.1676 262.249 17.1612C262.249 19.1548 262.584 20.8375 263.254 22.209C263.933 23.5806 264.843 24.6186 265.986 25.3231C267.136 26.0277 268.42 26.3799 269.837 26.3799C270.614 26.3799 271.361 26.275 272.077 26.0651C272.793 25.8553 273.444 25.5442 274.031 25.132C274.625 24.7123 275.128 24.1989 275.54 23.5918C275.959 22.9772 276.252 22.2727 276.419 21.4783H279.254C279.04 22.655 278.652 23.708 278.088 24.6374C277.524 25.5667 276.823 26.3574 275.985 27.0095C275.147 27.654 274.206 28.145 273.163 28.4822C272.126 28.8195 271.018 28.9881 269.837 28.9881C267.841 28.9881 266.066 28.5084 264.512 27.5491C262.957 26.5898 261.735 25.2257 260.843 23.4569C259.952 21.6881 259.506 19.5896 259.506 17.1612C259.506 14.7329 259.952 12.6343 260.843 10.8655C261.735 9.09676 262.957 7.73268 264.512 6.77336C266.066 5.81401 267.841 5.33435 269.837 5.33435C271.018 5.33435 272.126 5.50298 273.163 5.84025C274.206 6.17752 275.147 6.67216 275.985 7.32422C276.823 7.96878 277.524 8.75573 278.088 9.68511C278.652 10.607 279.04 11.66 279.254 12.8442Z"/>
    </mask>
    <path d="M279.254 12.8442H276.419C276.252 12.0423 275.959 11.3377 275.54 10.7306C275.128 10.1235 274.625 9.61392 274.031 9.20169C273.444 8.78197 272.793 8.46718 272.077 8.25733C271.361 8.04747 270.614 7.94254 269.837 7.94254C268.42 7.94254 267.136 8.29482 265.986 8.99933C264.843 9.70383 263.933 10.7419 263.254 12.1134C262.584 13.485 262.249 15.1676 262.249 17.1612C262.249 19.1548 262.584 20.8375 263.254 22.209C263.933 23.5806 264.843 24.6186 265.986 25.3231C267.136 26.0277 268.42 26.3799 269.837 26.3799C270.614 26.3799 271.361 26.275 272.077 26.0651C272.793 25.8553 273.444 25.5442 274.031 25.132C274.625 24.7123 275.128 24.1989 275.54 23.5918C275.959 22.9772 276.252 22.2727 276.419 21.4783H279.254C279.04 22.655 278.652 23.708 278.088 24.6374C277.524 25.5667 276.823 26.3574 275.985 27.0095C275.147 27.654 274.206 28.145 273.163 28.4822C272.126 28.8195 271.018 28.9881 269.837 28.9881C267.841 28.9881 266.066 28.5084 264.512 27.5491C262.957 26.5898 261.735 25.2257 260.843 23.4569C259.952 21.6881 259.506 19.5896 259.506 17.1612C259.506 14.7329 259.952 12.6343 260.843 10.8655C261.735 9.09676 262.957 7.73268 264.512 6.77336C266.066 5.81401 267.841 5.33435 269.837 5.33435C271.018 5.33435 272.126 5.50298 273.163 5.84025C274.206 6.17752 275.147 6.67216 275.985 7.32422C276.823 7.96878 277.524 8.75573 278.088 9.68511C278.652 10.607 279.04 11.66 279.254 12.8442Z"
          fill="white"/>
    <path d="M279.254 12.8442V17.8442H285.236L284.175 11.9572L279.254 12.8442ZM276.419 12.8442L271.525 13.8656L272.355 17.8442H276.419V12.8442ZM275.54 10.7306L271.401 13.5363L271.412 13.553L271.424 13.5696L275.54 10.7306ZM274.031 9.20169L271.122 13.2684L271.152 13.2895L271.181 13.3101L274.031 9.20169ZM272.077 8.25733L273.484 3.45925L273.483 3.45906L272.077 8.25733ZM265.986 8.99933L263.374 4.73545L263.368 4.73926L263.362 4.74309L265.986 8.99933ZM263.254 12.1134L258.772 9.89693L258.767 9.90726L258.762 9.91761L263.254 12.1134ZM263.254 22.209L258.762 24.4048L258.767 24.4152L258.772 24.4256L263.254 22.209ZM265.986 25.3231L263.362 29.5793L263.368 29.5832L263.374 29.587L265.986 25.3231ZM272.077 26.0651L273.483 30.8634L273.484 30.8632L272.077 26.0651ZM274.031 25.132L276.905 29.2233L276.916 29.2161L274.031 25.132ZM275.54 23.5918L271.408 20.7766L271.401 20.786L275.54 23.5918ZM276.419 21.4783V16.4783H272.363L271.527 20.4477L276.419 21.4783ZM279.254 21.4783L284.174 22.3708L285.243 16.4783H279.254V21.4783ZM278.088 24.6374L282.363 27.2311L282.364 27.2298L278.088 24.6374ZM275.985 27.0095L279.033 30.973L279.044 30.9645L279.056 30.9559L275.985 27.0095ZM273.163 28.4822L271.625 23.7244L271.615 23.7277L273.163 28.4822ZM264.512 27.5491L267.138 23.2945L267.138 23.2943L264.512 27.5491ZM260.843 23.4569L256.378 25.7072L256.378 25.7072L260.843 23.4569ZM264.512 6.77336L267.138 11.0283L267.138 11.0279L264.512 6.77336ZM273.163 5.84025L271.615 10.5948L271.625 10.598L273.163 5.84025ZM275.985 7.32422L272.915 11.2706L272.926 11.2792L272.937 11.2877L275.985 7.32422ZM278.088 9.68511L273.814 12.2787L273.818 12.2859L273.822 12.293L278.088 9.68511ZM279.254 12.8442V7.84419H276.419V12.8442V17.8442H279.254V12.8442ZM276.419 12.8442L281.314 11.8228C281.025 10.4394 280.491 9.10283 279.656 7.89174L275.54 10.7306L271.424 13.5696C271.426 13.5726 271.479 13.6451 271.525 13.8656L276.419 12.8442ZM275.54 10.7306L279.678 7.92498C278.926 6.81571 277.989 5.86197 276.881 5.09331L274.031 9.20169L271.181 13.3101C271.262 13.3659 271.33 13.4314 271.401 13.5363L275.54 10.7306ZM274.031 9.20169L276.94 5.13497C275.881 4.37764 274.719 3.82135 273.484 3.45925L272.077 8.25733L270.67 13.0554C270.867 13.113 271.008 13.1863 271.122 13.2684L274.031 9.20169ZM272.077 8.25733L273.483 3.45906C272.292 3.10995 271.07 2.94254 269.837 2.94254V7.94254V12.9425C270.158 12.9425 270.43 12.985 270.671 13.0556L272.077 8.25733ZM269.837 7.94254V2.94254C267.547 2.94254 265.351 3.52481 263.374 4.73545L265.986 8.99933L268.597 13.2632C268.921 13.0648 269.293 12.9425 269.837 12.9425V7.94254ZM265.986 8.99933L263.362 4.74309C261.313 6.00594 259.807 7.80531 258.772 9.89693L263.254 12.1134L267.736 14.33C268.058 13.6784 268.373 13.4017 268.61 13.2556L265.986 8.99933ZM263.254 12.1134L258.762 9.91761C257.671 12.1492 257.249 14.6307 257.249 17.1612H262.249H267.249C267.249 15.7045 267.496 14.8207 267.746 14.3093L263.254 12.1134ZM262.249 17.1612H257.249C257.249 19.6917 257.671 22.1732 258.762 24.4048L263.254 22.209L267.746 20.0132C267.496 19.5017 267.249 18.618 267.249 17.1612H262.249ZM263.254 22.209L258.772 24.4256C259.807 26.5172 261.313 28.3165 263.362 29.5793L265.986 25.3231L268.61 21.067C268.373 20.9208 268.058 20.644 267.736 19.9925L263.254 22.209ZM265.986 25.3231L263.374 29.587C265.351 30.7977 267.547 31.3799 269.837 31.3799V26.3799V21.3799C269.293 21.3799 268.921 21.2576 268.597 21.0593L265.986 25.3231ZM269.837 26.3799V31.3799C271.07 31.3799 272.292 31.2125 273.483 30.8634L272.077 26.0651L270.671 21.2669C270.43 21.3375 270.158 21.3799 269.837 21.3799V26.3799ZM272.077 26.0651L273.484 30.8632C274.702 30.5059 275.853 29.9626 276.905 29.2233L274.031 25.132L271.157 21.0407C271.036 21.1259 270.884 21.2046 270.67 21.267L272.077 26.0651ZM274.031 25.132L276.916 29.2161C278.006 28.446 278.932 27.4982 279.678 26.3976L275.54 23.5918L271.401 20.786C271.324 20.8996 271.245 20.9785 271.147 21.0479L274.031 25.132ZM275.54 23.5918L279.672 26.407C280.489 25.2071 281.022 23.8855 281.312 22.5089L276.419 21.4783L271.527 20.4477C271.482 20.6599 271.428 20.7474 271.408 20.7766L275.54 23.5918ZM276.419 21.4783V26.4783H279.254V21.4783V16.4783H276.419V21.4783ZM279.254 21.4783L274.334 20.5858C274.219 21.2209 274.029 21.6876 273.813 22.0449L278.088 24.6374L282.364 27.2298C283.274 25.7284 283.862 24.089 284.174 22.3708L279.254 21.4783ZM278.088 24.6374L273.814 22.0437C273.558 22.4655 273.261 22.794 272.915 23.0631L275.985 27.0095L279.056 30.9559C280.386 29.9208 281.491 28.6679 282.363 27.2311L278.088 24.6374ZM275.985 27.0095L272.937 23.046C272.57 23.3283 272.144 23.5568 271.625 23.7244L273.163 28.4822L274.7 33.24C276.269 32.7331 277.724 31.9798 279.033 30.973L275.985 27.0095ZM273.163 28.4822L271.615 23.7277C271.119 23.8893 270.536 23.9881 269.837 23.9881V28.9881V33.9881C271.5 33.9881 273.134 33.7497 274.71 33.2367L273.163 28.4822ZM269.837 28.9881V23.9881C268.679 23.9881 267.83 23.7216 267.138 23.2945L264.512 27.5491L261.885 31.8037C264.301 33.2952 267.003 33.9881 269.837 33.9881V28.9881ZM264.512 27.5491L267.138 23.2943C266.436 22.8613 265.82 22.2228 265.308 21.2067L260.843 23.4569L256.378 25.7072C257.649 28.2286 259.478 30.3182 261.885 31.804L264.512 27.5491ZM260.843 23.4569L265.308 21.2067C264.839 20.2758 264.506 18.9814 264.506 17.1612H259.506H254.506C254.506 20.1977 255.064 23.1005 256.378 25.7072L260.843 23.4569ZM259.506 17.1612H264.506C264.506 15.341 264.839 14.0467 265.308 13.1158L260.843 10.8655L256.378 8.61528C255.064 11.222 254.506 14.1247 254.506 17.1612H259.506ZM260.843 10.8655L265.308 13.1158C265.82 12.0996 266.436 11.4611 267.138 11.0283L264.512 6.77336L261.886 2.51847C259.478 4.00426 257.649 6.0939 256.378 8.61528L260.843 10.8655ZM264.512 6.77336L267.138 11.0279C267.83 10.6009 268.679 10.3344 269.837 10.3344V5.33435V0.334351C267.003 0.334351 264.301 1.02716 261.885 2.51878L264.512 6.77336ZM269.837 5.33435V10.3344C270.536 10.3344 271.119 10.4332 271.615 10.5948L273.163 5.84025L274.71 1.08574C273.134 0.572794 271.5 0.334351 269.837 0.334351V5.33435ZM273.163 5.84025L271.625 10.598C272.133 10.7621 272.552 10.9879 272.915 11.2706L275.985 7.32422L279.056 3.37782C277.743 2.35645 276.28 1.59293 274.7 1.08247L273.163 5.84025ZM275.985 7.32422L272.937 11.2877C273.271 11.5445 273.561 11.8624 273.814 12.2787L278.088 9.68511L282.363 7.09148C281.488 5.64905 280.376 4.39302 279.033 3.36071L275.985 7.32422ZM278.088 9.68511L273.822 12.293C274.028 12.6304 274.217 13.0877 274.333 13.7312L279.254 12.8442L284.175 11.9572C283.864 10.2323 283.275 8.58356 282.354 7.07726L278.088 9.68511Z"
          fill="white" mask="url(#path-18-inside-6_30_82)"/>
    <mask id="path-20-inside-7_30_82" fill="white">
        <path d="M112.584 221.309V198.284H120.767C122.397 198.284 123.742 198.562 124.801 199.116C125.86 199.663 126.649 200.402 127.166 201.331C127.685 202.253 127.944 203.276 127.944 204.4C127.944 205.389 127.765 206.206 127.407 206.851C127.056 207.496 126.591 208.005 126.012 208.38C125.441 208.755 124.82 209.032 124.15 209.212V209.437C124.866 209.482 125.586 209.729 126.309 210.179C127.033 210.628 127.639 211.273 128.127 212.113C128.614 212.952 128.858 213.979 128.858 215.193C128.858 216.347 128.591 217.385 128.058 218.307C127.525 219.229 126.683 219.96 125.532 220.499C124.382 221.039 122.885 221.309 121.041 221.309H112.584ZM115.418 218.835H121.041C122.892 218.835 124.207 218.483 124.984 217.778C125.769 217.066 126.161 216.205 126.161 215.193C126.161 214.413 125.959 213.694 125.555 213.034C125.152 212.367 124.576 211.835 123.83 211.438C123.083 211.033 122.199 210.831 121.178 210.831H115.418V218.835ZM115.418 208.403H120.675C121.529 208.403 122.298 208.238 122.984 207.908C123.677 207.578 124.226 207.113 124.629 206.514C125.041 205.914 125.247 205.21 125.247 204.4C125.247 203.388 124.889 202.53 124.172 201.826C123.456 201.114 122.321 200.758 120.767 200.758H115.418V208.403Z"/>
    </mask>
    <path d="M112.584 221.309V198.284H120.767C122.397 198.284 123.742 198.562 124.801 199.116C125.86 199.663 126.649 200.402 127.166 201.331C127.685 202.253 127.944 203.276 127.944 204.4C127.944 205.389 127.765 206.206 127.407 206.851C127.056 207.496 126.591 208.005 126.012 208.38C125.441 208.755 124.82 209.032 124.15 209.212V209.437C124.866 209.482 125.586 209.729 126.309 210.179C127.033 210.628 127.639 211.273 128.127 212.113C128.614 212.952 128.858 213.979 128.858 215.193C128.858 216.347 128.591 217.385 128.058 218.307C127.525 219.229 126.683 219.96 125.532 220.499C124.382 221.039 122.885 221.309 121.041 221.309H112.584ZM115.418 218.835H121.041C122.892 218.835 124.207 218.483 124.984 217.778C125.769 217.066 126.161 216.205 126.161 215.193C126.161 214.413 125.959 213.694 125.555 213.034C125.152 212.367 124.576 211.835 123.83 211.438C123.083 211.033 122.199 210.831 121.178 210.831H115.418V218.835ZM115.418 208.403H120.675C121.529 208.403 122.298 208.238 122.984 207.908C123.677 207.578 124.226 207.113 124.629 206.514C125.041 205.914 125.247 205.21 125.247 204.4C125.247 203.388 124.889 202.53 124.172 201.826C123.456 201.114 122.321 200.758 120.767 200.758H115.418V208.403Z"
          fill="white"/>
    <path d="M112.584 221.309H107.584V226.309H112.584V221.309ZM112.584 198.284V193.284H107.584V198.284H112.584ZM124.801 199.116L122.481 203.546L122.494 203.552L122.506 203.559L124.801 199.116ZM127.166 201.331L122.799 203.765L122.803 203.773L122.808 203.781L127.166 201.331ZM127.407 206.851L123.036 204.423L123.025 204.442L123.015 204.461L127.407 206.851ZM126.012 208.38L123.295 204.183L123.283 204.191L123.271 204.199L126.012 208.38ZM124.15 209.212L122.852 204.383L119.15 205.378V209.212H124.15ZM124.15 209.437H119.15V214.132L123.836 214.427L124.15 209.437ZM126.309 210.179L128.948 205.932L128.948 205.931L126.309 210.179ZM128.127 212.113L123.803 214.624L123.803 214.625L128.127 212.113ZM128.058 218.307L123.73 215.803L123.73 215.803L128.058 218.307ZM115.418 218.835H110.418V223.835H115.418V218.835ZM124.984 217.778L128.342 221.482L128.343 221.482L124.984 217.778ZM125.555 213.034L121.278 215.623L121.284 215.634L121.291 215.644L125.555 213.034ZM123.83 211.438L121.446 215.833L121.464 215.843L121.481 215.852L123.83 211.438ZM115.418 210.831V205.831H110.418V210.831H115.418ZM115.418 208.403H110.418V213.403H115.418V208.403ZM122.984 207.908L120.837 203.392L120.827 203.397L120.816 203.402L122.984 207.908ZM124.629 206.514L120.508 203.683L120.494 203.702L120.482 203.722L124.629 206.514ZM124.172 201.826L120.647 205.372L120.657 205.381L120.666 205.39L124.172 201.826ZM115.418 200.758V195.758H110.418V200.758H115.418ZM112.584 221.309H117.584V198.284H112.584H107.584V221.309H112.584ZM112.584 198.284V203.284H120.767V198.284V193.284H112.584V198.284ZM120.767 198.284V203.284C121.868 203.284 122.35 203.477 122.481 203.546L124.801 199.116L127.121 194.687C125.134 193.646 122.926 193.284 120.767 193.284V198.284ZM124.801 199.116L122.506 203.559C122.669 203.643 122.744 203.706 122.769 203.73C122.792 203.751 122.796 203.759 122.799 203.765L127.166 201.331L131.534 198.898C130.481 197.008 128.919 195.616 127.096 194.674L124.801 199.116ZM127.166 201.331L122.808 203.781C122.879 203.908 122.944 204.078 122.944 204.4H127.944H132.944C132.944 202.474 132.49 200.598 131.525 198.881L127.166 201.331ZM127.944 204.4H122.944C122.944 204.497 122.939 204.568 122.935 204.616C122.93 204.664 122.925 204.686 122.925 204.684C122.926 204.681 122.949 204.579 123.036 204.423L127.407 206.851L131.778 209.279C132.665 207.681 132.944 205.96 132.944 204.4H127.944ZM127.407 206.851L123.015 204.461C123.019 204.453 123.045 204.408 123.101 204.347C123.158 204.285 123.225 204.228 123.295 204.183L126.012 208.38L128.729 212.577C130.054 211.72 131.076 210.57 131.799 209.24L127.407 206.851ZM126.012 208.38L123.271 204.199C123.151 204.277 123.019 204.338 122.852 204.383L124.15 209.212L125.447 214.041C126.621 213.725 127.731 213.232 128.754 212.561L126.012 208.38ZM124.15 209.212H119.15V209.437H124.15H129.15V209.212H124.15ZM124.15 209.437L123.836 214.427C123.721 214.42 123.64 214.398 123.602 214.385C123.568 214.373 123.591 214.376 123.671 214.426L126.309 210.179L128.948 205.931C127.654 205.127 126.145 204.552 124.463 204.447L124.15 209.437ZM126.309 210.179L123.671 214.426C123.649 214.412 123.646 214.406 123.663 214.423C123.681 214.442 123.732 214.501 123.803 214.624L128.127 212.113L132.45 209.601C131.609 208.154 130.459 206.871 128.948 205.932L126.309 210.179ZM128.127 212.113L123.803 214.625C123.749 214.532 123.858 214.642 123.858 215.193H128.858H133.858C133.858 213.315 133.479 211.372 132.45 209.6L128.127 212.113ZM128.858 215.193H123.858C123.858 215.543 123.787 215.705 123.73 215.803L128.058 218.307L132.386 220.811C133.396 219.065 133.858 217.151 133.858 215.193H128.858ZM128.058 218.307L123.73 215.803C123.753 215.762 123.772 215.751 123.749 215.77C123.721 215.795 123.624 215.872 123.409 215.972L125.532 220.499L127.656 225.026C129.548 224.138 131.249 222.776 132.386 220.811L128.058 218.307ZM125.532 220.499L123.409 215.972C123.153 216.092 122.457 216.309 121.041 216.309V221.309V226.309C123.313 226.309 125.611 225.985 127.656 225.026L125.532 220.499ZM121.041 221.309V216.309H112.584V221.309V226.309H121.041V221.309ZM115.418 218.835V223.835H121.041V218.835V213.835H115.418V218.835ZM121.041 218.835V223.835C123.271 223.835 126.161 223.46 128.342 221.482L124.984 217.778L121.625 214.074C121.974 213.758 122.231 213.712 122.12 213.742C122.072 213.755 121.962 213.779 121.776 213.8C121.59 213.821 121.348 213.835 121.041 213.835V218.835ZM124.984 217.778L128.343 221.482C130.117 219.872 131.161 217.689 131.161 215.193H126.161H121.161C121.161 215.034 121.196 214.79 121.316 214.526C121.434 214.268 121.573 214.122 121.624 214.075L124.984 217.778ZM126.161 215.193H131.161C131.161 213.499 130.708 211.875 129.82 210.424L125.555 213.034L121.291 215.644C121.261 215.595 121.223 215.518 121.195 215.419C121.168 215.321 121.161 215.24 121.161 215.193H126.161ZM125.555 213.034L129.833 210.445C128.923 208.942 127.65 207.807 126.178 207.023L123.83 211.438L121.481 215.852C121.505 215.865 121.478 215.853 121.426 215.805C121.372 215.756 121.319 215.692 121.278 215.623L125.555 213.034ZM123.83 211.438L126.213 207.043C124.6 206.168 122.863 205.831 121.178 205.831V210.831V215.831C121.359 215.831 121.458 215.849 121.491 215.856C121.52 215.863 121.498 215.861 121.446 215.833L123.83 211.438ZM121.178 210.831V205.831H115.418V210.831V215.831H121.178V210.831ZM115.418 210.831H110.418V218.835H115.418H120.418V210.831H115.418ZM115.418 208.403V213.403H120.675V208.403V203.403H115.418V208.403ZM120.675 208.403V213.403C122.188 213.403 123.712 213.106 125.152 212.413L122.984 207.908L120.816 203.402C120.842 203.39 120.855 203.388 120.844 203.39C120.831 203.393 120.779 203.403 120.675 203.403V208.403ZM122.984 207.908L125.131 212.423C126.581 211.734 127.842 210.695 128.777 209.306L124.629 206.514L120.482 203.722C120.535 203.642 120.605 203.563 120.683 203.497C120.761 203.431 120.82 203.4 120.837 203.392L122.984 207.908ZM124.629 206.514L128.751 209.344C129.799 207.817 130.247 206.1 130.247 204.4H125.247H120.247C120.247 204.379 120.25 204.282 120.293 204.134C120.337 203.982 120.41 203.825 120.508 203.683L124.629 206.514ZM125.247 204.4H130.247C130.247 202.059 129.359 199.914 127.679 198.261L124.172 201.826L120.666 205.39C120.588 205.313 120.461 205.157 120.364 204.923C120.266 204.69 120.247 204.496 120.247 204.4H125.247ZM124.172 201.826L127.697 198.28C125.646 196.24 122.946 195.758 120.767 195.758V200.758V205.758C120.967 205.758 121.108 205.769 121.198 205.781C121.288 205.793 121.313 205.804 121.288 205.796C121.261 205.787 121.177 205.758 121.059 205.69C120.937 205.62 120.793 205.516 120.647 205.372L124.172 201.826ZM120.767 200.758V195.758H115.418V200.758V205.758H120.767V200.758ZM115.418 200.758H110.418V208.403H115.418H120.418V200.758H115.418Z"
          fill="white" mask="url(#path-20-inside-7_30_82)"/>
    <path d="M21.1708 445.076C25.6834 445.076 29.3416 441.477 29.3416 437.038C29.3416 432.599 25.6834 429 21.1708 429C16.6582 429 13 432.599 13 437.038C13 441.477 16.6582 445.076 21.1708 445.076Z"
          fill="#540B0E" stroke="#540B0E" stroke-width="9"/>
    <path d="M386.097 237.982C390.61 237.982 394.268 234.383 394.268 229.944C394.268 225.504 390.61 221.906 386.097 221.906C381.584 221.906 377.926 225.504 377.926 229.944C377.926 234.383 381.584 237.982 386.097 237.982Z"
          fill="#540B0E" stroke="#540B0E" stroke-width="9"/>
    <path d="M147.212 237.982C151.725 237.982 155.383 234.383 155.383 229.944C155.383 225.504 151.725 221.906 147.212 221.906C142.7 221.906 139.042 225.504 139.042 229.944C139.042 234.383 142.7 237.982 147.212 237.982Z"
          fill="#540B0E" stroke="#540B0E" stroke-width="9"/>
    <path d="M267.752 304.309C272.265 304.309 275.923 300.71 275.923 296.271C275.923 291.832 272.265 288.233 267.752 288.233C263.24 288.233 259.582 291.832 259.582 296.271C259.582 300.71 263.24 304.309 267.752 304.309Z"
          fill="#540B0E" stroke="#540B0E" stroke-width="9"/>
    <path d="M513.171 445.076C517.683 445.076 521.342 441.477 521.342 437.038C521.342 432.599 517.683 429 513.171 429C508.658 429 505 432.599 505 437.038C505 441.477 508.658 445.076 513.171 445.076Z"
          fill="#540B0E" stroke="#540B0E" stroke-width="9"/>
    <path d="M265.909 445.601C270.422 445.601 274.08 442.003 274.08 437.563C274.08 433.124 270.422 429.525 265.909 429.525C261.397 429.525 257.739 433.124 257.739 437.563C257.739 442.003 261.397 445.601 265.909 445.601Z"
          fill="#540B0E" stroke="#540B0E" stroke-width="9"/>
    <path d="M269.171 54.0759C273.683 54.0759 277.342 50.4772 277.342 46.0379C277.342 41.5987 273.683 38 269.171 38C264.658 38 261 41.5987 261 46.0379C261 50.4772 264.658 54.0759 269.171 54.0759Z"
          fill="#540B0E" stroke="#540B0E" stroke-width="9"/>
</svg>
