<svg width="14934" height="13731" viewBox="0 0 14934 13731" fill="none" xmlns="http://www.w3.org/2000/svg">
<circle cx="7485" cy="8562" r="3879" stroke="black" stroke-width="30"/>
<line x1="368.336" y1="12462" x2="7472.34" y2="1271.99" stroke="black" stroke-width="30"/>
<line x1="14576.3" y1="12464.1" x2="7468.95" y2="1270.04" stroke="black" stroke-width="30"/>
<line x1="14579" y1="12459" x2="368.999" y2="12458" stroke="black" stroke-width="30"/>
<line x1="365.8" y1="12427.4" x2="10789.2" y2="6525.01" stroke="black" stroke-width="30"/>
<line x1="14512.1" y1="12453.5" x2="4108.48" y2="6551.11" stroke="black" stroke-width="30"/>
<line x1="7404.85" y1="12440.7" x2="7404.85" y2="1291.19" stroke="black" stroke-width="30"/>
<path d="M14802.7 13095C14795.7 13073.5 14786.4 13054.2 14774.9 13037.2C14763.6 13019.9 14750.1 13005.2 14734.3 12993C14718.8 12980.9 14701.1 12971.6 14681.3 12965.2C14661.4 12958.8 14639.7 12955.7 14616.1 12955.7C14577.3 12955.7 14542 12965.7 14510.3 12985.7C14478.5 13005.7 14453.3 13035.2 14434.5 13074.2C14415.8 13113.2 14406.4 13161.1 14406.4 13217.7C14406.4 13274.4 14415.9 13322.2 14434.8 13361.2C14453.8 13400.2 14479.5 13429.7 14511.9 13449.8C14544.3 13469.8 14580.7 13479.8 14621.2 13479.8C14658.7 13479.8 14691.7 13471.8 14720.2 13455.8C14749 13439.6 14771.4 13416.8 14787.4 13387.4C14803.6 13357.8 14811.7 13323 14811.7 13282.9L14835.9 13288H14639.1V13217.7H14888.4V13288C14888.4 13341.9 14876.9 13388.8 14853.8 13428.7C14831 13468.5 14799.5 13499.4 14759.2 13521.3C14719.2 13543.1 14673.2 13553.9 14621.2 13553.9C14563.2 13553.9 14512.3 13540.3 14468.4 13513C14424.7 13485.8 14390.6 13447 14366.1 13396.7C14341.8 13346.4 14329.7 13286.8 14329.7 13217.7C14329.7 13166 14336.6 13119.4 14350.5 13078.1C14364.5 13036.5 14384.3 13001.1 14409.9 12972C14435.5 12942.8 14465.7 12920.4 14500.7 12904.8C14535.6 12889.3 14574.1 12881.5 14616.1 12881.5C14650.6 12881.5 14682.7 12886.7 14712.6 12897.2C14742.6 12907.4 14769.4 12922 14792.8 12941C14816.4 12959.7 14836.2 12982.2 14851.9 13008.4C14867.7 13034.4 14878.6 13063.3 14884.5 13095H14802.7Z" fill="black"/>
<path d="M106.108 13612H23.0114L263.352 12957.5H345.17L585.511 13612H502.415L306.818 13061H301.705L106.108 13612ZM136.79 13356.3H471.733V13426.6H136.79V13356.3Z" fill="black"/>
<path d="M7564.26 7893V7238.45H7959.29V7308.77H7643.52V7529.93H7938.84V7600.24H7643.52V7822.69H7964.4V7893H7564.26Z" fill="black"/>
<path d="M11316.2 6535H11114.3V5880.45H11325.2C11388.7 5880.45 11443 5893.56 11488.2 5919.77C11533.4 5945.76 11568 5983.15 11592.1 6031.95C11616.1 6080.53 11628.2 6138.69 11628.2 6206.45C11628.2 6274.63 11616 6333.33 11591.7 6382.55C11567.5 6431.56 11532.1 6469.27 11485.6 6495.69C11439.2 6521.9 11382.7 6535 11316.2 6535ZM11193.5 6464.69H11311.1C11365.3 6464.69 11410.1 6454.25 11445.7 6433.37C11481.3 6412.49 11507.8 6382.76 11525.3 6344.2C11542.7 6305.63 11551.5 6259.72 11551.5 6206.45C11551.5 6153.61 11542.8 6108.12 11525.6 6069.98C11508.3 6031.63 11482.5 6002.22 11448.2 5981.77C11413.9 5961.1 11371.2 5950.77 11320.1 5950.77H11193.5V6464.69Z" fill="black"/>
<path d="M7308.65 13611.7V12957.2H7701.12V13027.5H7387.91V13248.6H7671.72V13319H7387.91V13611.7H7308.65Z" fill="black"/>
<path d="M7585.97 422H7506.7C7502.02 399.202 7493.81 379.173 7482.1 361.915C7470.59 344.656 7456.53 330.168 7439.91 318.449C7423.5 306.517 7405.28 297.568 7385.26 291.602C7365.23 285.636 7344.35 282.653 7322.61 282.653C7282.98 282.653 7247.08 292.668 7214.91 312.696C7182.95 332.724 7157.49 362.234 7138.52 401.226C7119.77 440.217 7110.4 488.051 7110.4 544.727C7110.4 601.403 7119.77 649.237 7138.52 688.229C7157.49 727.22 7182.95 756.73 7214.91 776.759C7247.08 796.787 7282.98 806.801 7322.61 806.801C7344.35 806.801 7365.23 803.818 7385.26 797.852C7405.28 791.886 7423.5 783.044 7439.91 771.325C7456.53 759.393 7470.59 744.798 7482.1 727.54C7493.81 710.068 7502.02 690.04 7506.7 667.455H7585.97C7580 700.906 7569.13 730.842 7553.37 757.263C7537.6 783.683 7518 806.162 7494.56 824.699C7471.12 843.023 7444.81 856.979 7415.62 866.567C7386.64 876.155 7355.64 880.949 7322.61 880.949C7266.79 880.949 7217.14 867.312 7173.68 840.04C7130.21 812.767 7096.02 773.989 7071.09 723.705C7046.16 673.42 7033.69 613.761 7033.69 544.727C7033.69 475.693 7046.16 416.034 7071.09 365.75C7096.02 315.466 7130.21 276.687 7173.68 249.415C7217.14 222.142 7266.79 208.506 7322.61 208.506C7355.64 208.506 7386.64 213.3 7415.62 222.888C7444.81 232.476 7471.12 246.538 7494.56 265.075C7518 283.399 7537.6 305.771 7553.37 332.192C7569.13 358.399 7580 388.335 7585.97 422Z" fill="black"/>
<path d="M3377.26 6459V5804.45H3606.1C3651.69 5804.45 3689.3 5812.34 3718.92 5828.11C3748.53 5843.66 3770.59 5864.65 3785.07 5891.07C3799.56 5917.27 3806.81 5946.36 3806.81 5978.32C3806.81 6006.44 3801.8 6029.67 3791.79 6047.99C3781.98 6066.32 3768.99 6080.8 3752.79 6091.46C3736.81 6102.11 3719.45 6109.99 3700.7 6115.11V6121.5C3720.73 6122.78 3740.86 6129.81 3761.1 6142.59C3781.35 6155.38 3798.28 6173.7 3811.92 6197.57C3825.56 6221.43 3832.38 6250.62 3832.38 6285.14C3832.38 6317.95 3824.92 6347.46 3810 6373.67C3795.09 6399.87 3771.54 6420.65 3739.37 6435.99C3707.2 6451.33 3665.33 6459 3613.77 6459H3377.26ZM3456.52 6388.69H3613.77C3665.54 6388.69 3702.3 6378.67 3724.03 6358.64C3745.98 6338.4 3756.95 6313.9 3756.95 6285.14C3756.95 6262.98 3751.3 6242.52 3740.01 6223.77C3728.72 6204.81 3712.63 6189.68 3691.75 6178.39C3670.87 6166.88 3646.15 6161.13 3617.6 6161.13H3456.52V6388.69ZM3456.52 6092.1H3603.54C3627.4 6092.1 3648.92 6087.41 3668.1 6078.03C3687.49 6068.66 3702.83 6055.45 3714.12 6038.4C3725.63 6021.36 3731.38 6001.33 3731.38 5978.32C3731.38 5949.55 3721.37 5925.16 3701.34 5905.13C3681.31 5884.89 3649.56 5874.77 3606.1 5874.77H3456.52V6092.1Z" fill="black"/>
<circle cx="374.288" cy="12439.3" r="228.507" fill="#FF3D3D" stroke="black" stroke-width="10"/>
<circle cx="10797.7" cy="6536.97" r="228.507" fill="#FF3D3D" stroke="black" stroke-width="10"/>
<circle cx="7419.61" cy="1290.94" r="228.507" fill="#FF3D3D" stroke="black" stroke-width="10"/>
<circle cx="4116.98" cy="6536.97" r="228.507" fill="#FF3D3D" stroke="black" stroke-width="10"/>
<circle cx="7432.11" cy="8422.56" r="228.507" fill="#FF3D3D" stroke="black" stroke-width="10"/>
<circle cx="14520.6" cy="12439.3" r="228.507" fill="#FF3D3D" stroke="black" stroke-width="10"/>
<circle cx="7436.5" cy="12439.3" r="228.507" fill="#FF3D3D" stroke="black" stroke-width="10"/>
</svg>
